<svg xmlns="http://www.w3.org/2000/svg" width="172" height="28.5" viewBox="0 0 172 28.5">
  <g id="Grupo_20" data-name="Grupo 20" transform="translate(-68 -351.5)">
    <path id="Icon_material-star" data-name="Icon material-star" d="M18,25.905,27.27,31.5,24.81,20.955,33,13.86l-10.785-.915L18,3l-4.215,9.945L3,13.86l8.19,7.1L8.73,31.5Z" transform="translate(65 348.5)" fill="#059592"/>
    <path id="Icon_material-star-2" data-name="Icon material-star" d="M18,25.905,27.27,31.5,24.81,20.955,33,13.86l-10.785-.915L18,3l-4.215,9.945L3,13.86l8.19,7.1L8.73,31.5Z" transform="translate(100.5 348.5)" fill="#059592"/>
    <path id="Icon_material-star-3" data-name="Icon material-star" d="M18,25.905,27.27,31.5,24.81,20.955,33,13.86l-10.785-.915L18,3l-4.215,9.945L3,13.86l8.19,7.1L8.73,31.5Z" transform="translate(136 348.5)" fill="#059592"/>
    <path id="Icon_material-star-4" data-name="Icon material-star" d="M18,25.905,27.27,31.5,24.81,20.955,33,13.86l-10.785-.915L18,3l-4.215,9.945L3,13.86l8.19,7.1L8.73,31.5Z" transform="translate(171.5 348.5)" fill="#059592"/>
    <path id="Icon_material-star-5" data-name="Icon material-star" d="M18,25.905,27.27,31.5,24.81,20.955,33,13.86l-10.785-.915L18,3l-4.215,9.945L3,13.86l8.19,7.1L8.73,31.5Z" transform="translate(207 348.5)" fill="#059592"/>
  </g>
</svg>
